<svg width="390" height="360" viewBox="0 0 390 360" fill="none" xmlns="http://www.w3.org/2000/svg">
<g clip-path="url(#clip0_504_414)">
<rect width="390" height="360" fill="black"/>
<rect x="0.5" y="0.5" width="29" height="29" fill="white" stroke="black"/>
<rect x="30.5" y="0.5" width="29" height="29" fill="white" stroke="black"/>
<rect x="60.5" y="0.5" width="29" height="29" fill="white" stroke="black"/>
<rect x="90.5" y="0.5" width="29" height="29" fill="white" stroke="black"/>
<rect x="120.5" y="0.5" width="29" height="29" fill="white" stroke="black"/>
<rect x="150.5" y="0.5" width="29" height="29" fill="white" stroke="black"/>
<rect x="180.5" y="0.5" width="29" height="29" fill="white" stroke="black"/>
<rect x="210.5" y="0.5" width="29" height="29" fill="white" stroke="black"/>
<rect x="240.5" y="0.5" width="29" height="29" fill="white" stroke="black"/>
<rect x="270.5" y="0.5" width="29" height="29" fill="white" stroke="black"/>
<rect x="300.5" y="0.5" width="29" height="29" fill="white" stroke="black"/>
<rect x="330.5" y="0.5" width="29" height="29" fill="white" stroke="black"/>
<rect x="360.5" y="0.5" width="29" height="29" fill="white" stroke="black"/>
<rect x="0.5" y="30.5" width="29" height="29" fill="white" stroke="black"/>
<rect x="30.5" y="30.5" width="29" height="29" fill="white" stroke="black"/>
<rect x="60.5" y="30.5" width="29" height="29" fill="white" stroke="black"/>
<rect x="90.5" y="30.5" width="29" height="29" fill="white" stroke="black"/>
<rect x="120.5" y="30.5" width="29" height="29" fill="white" stroke="black"/>
<rect x="150.5" y="30.5" width="29" height="29" fill="white" stroke="black"/>
<rect x="180.5" y="30.5" width="29" height="29" fill="white" stroke="black"/>
<rect x="210.5" y="30.5" width="29" height="29" fill="white" stroke="black"/>
<rect x="240.5" y="30.5" width="29" height="29" fill="white" stroke="black"/>
<rect x="270.5" y="30.5" width="29" height="29" fill="white" stroke="black"/>
<rect x="300.5" y="30.5" width="29" height="29" fill="white" stroke="black"/>
<rect x="330.5" y="30.5" width="29" height="29" fill="white" stroke="black"/>
<rect x="360.5" y="30.5" width="29" height="29" fill="white" stroke="black"/>
<rect x="0.5" y="60.5" width="29" height="29" fill="white" stroke="black"/>
<rect x="30.5" y="60.5" width="29" height="29" fill="white" stroke="black"/>
<rect x="60.5" y="60.5" width="29" height="29" fill="white" stroke="black"/>
<rect x="90.5" y="60.5" width="29" height="29" fill="white" stroke="black"/>
<rect x="120.5" y="60.5" width="29" height="29" fill="white" stroke="black"/>
<rect x="150.5" y="60.5" width="29" height="29" fill="white" stroke="black"/>
<rect x="180.5" y="60.5" width="29" height="29" fill="white" stroke="black"/>
<rect x="210.5" y="60.5" width="29" height="29" fill="white" stroke="black"/>
<rect x="240.5" y="60.5" width="29" height="29" fill="white" stroke="black"/>
<rect x="270.5" y="60.5" width="29" height="29" fill="white" stroke="black"/>
<rect x="300.5" y="60.5" width="29" height="29" fill="white" stroke="black"/>
<rect x="330.5" y="60.5" width="29" height="29" fill="white" stroke="black"/>
<rect x="360.5" y="60.5" width="29" height="29" fill="white" stroke="black"/>
<rect x="0.5" y="90.5" width="29" height="29" fill="white" stroke="black"/>
<rect x="30.5" y="90.5" width="29" height="29" fill="white" stroke="black"/>
<rect x="60.5" y="90.5" width="29" height="29" fill="white" stroke="black"/>
<rect x="90.5" y="90.5" width="29" height="29" fill="white" stroke="black"/>
<rect x="120.5" y="90.5" width="29" height="29" fill="white" stroke="black"/>
<rect x="150.5" y="90.5" width="29" height="29" fill="white" stroke="black"/>
<rect x="180.5" y="90.5" width="29" height="29" fill="white" stroke="black"/>
<rect x="210.5" y="90.5" width="29" height="29" fill="white" stroke="black"/>
<rect x="240.5" y="90.5" width="29" height="29" fill="white" stroke="black"/>
<rect x="270.5" y="90.5" width="29" height="29" fill="white" stroke="black"/>
<rect x="300.5" y="90.5" width="29" height="29" fill="white" stroke="black"/>
<rect x="330.5" y="90.5" width="29" height="29" fill="white" stroke="black"/>
<rect x="360.5" y="90.5" width="29" height="29" fill="white" stroke="black"/>
<rect x="0.5" y="120.5" width="29" height="29" fill="white" stroke="black"/>
<rect x="30.5" y="120.5" width="29" height="29" fill="white" stroke="black"/>
<rect x="60.5" y="120.5" width="29" height="29" fill="white" stroke="black"/>
<rect x="90.5" y="120.5" width="29" height="29" fill="white" stroke="black"/>
<rect x="120.5" y="120.5" width="29" height="29" fill="white" stroke="black"/>
<rect x="150.5" y="120.5" width="29" height="29" fill="white" stroke="black"/>
<rect x="180.5" y="120.5" width="29" height="29" fill="white" stroke="black"/>
<rect x="210.5" y="120.5" width="29" height="29" fill="white" stroke="black"/>
<rect x="240.5" y="120.5" width="29" height="29" fill="white" stroke="black"/>
<rect x="270.5" y="120.5" width="29" height="29" fill="white" stroke="black"/>
<rect x="300.5" y="120.5" width="29" height="29" fill="white" stroke="black"/>
<rect x="330.5" y="120.5" width="29" height="29" fill="white" stroke="black"/>
<rect x="360.5" y="120.5" width="29" height="29" fill="white" stroke="black"/>
<rect x="0.5" y="150.5" width="29" height="29" fill="white" stroke="black"/>
<rect x="30.5" y="150.5" width="29" height="29" fill="white" stroke="black"/>
<rect x="60.5" y="150.5" width="29" height="29" fill="white" stroke="black"/>
<rect x="90.5" y="150.5" width="29" height="29" fill="white" stroke="black"/>
<rect x="120.5" y="150.5" width="29" height="29" fill="white" stroke="black"/>
<rect x="150.5" y="150.5" width="29" height="29" fill="white" stroke="black"/>
<rect x="180.5" y="150.5" width="29" height="29" fill="white" stroke="black"/>
<rect x="210.5" y="150.5" width="29" height="29" fill="white" stroke="black"/>
<rect x="240.5" y="150.5" width="29" height="29" fill="white" stroke="black"/>
<rect x="270.5" y="150.5" width="29" height="29" fill="white" stroke="black"/>
<rect x="300.5" y="150.5" width="29" height="29" fill="white" stroke="black"/>
<rect x="330.5" y="150.5" width="29" height="29" fill="white" stroke="black"/>
<rect x="360.5" y="150.5" width="29" height="29" fill="white" stroke="black"/>
<rect x="0.5" y="180.5" width="29" height="29" fill="white" stroke="black"/>
<rect x="30.5" y="180.5" width="29" height="29" fill="white" stroke="black"/>
<rect x="60.5" y="180.5" width="29" height="29" fill="white" stroke="black"/>
<rect x="90.5" y="180.5" width="29" height="29" fill="white" stroke="black"/>
<rect x="120.5" y="180.5" width="29" height="29" fill="white" stroke="black"/>
<rect x="150.5" y="180.5" width="29" height="29" fill="white" stroke="black"/>
<rect x="180.5" y="180.5" width="29" height="29" fill="white" stroke="black"/>
<rect x="210.5" y="180.5" width="29" height="29" fill="white" stroke="black"/>
<rect x="240.5" y="180.5" width="29" height="29" fill="white" stroke="black"/>
<rect x="270.5" y="180.5" width="29" height="29" fill="white" stroke="black"/>
<rect x="300.5" y="180.5" width="29" height="29" fill="white" stroke="black"/>
<rect x="330.5" y="180.5" width="29" height="29" fill="white" stroke="black"/>
<rect x="360.5" y="180.5" width="29" height="29" fill="white" stroke="black"/>
<rect x="0.5" y="210.5" width="29" height="29" fill="white" stroke="black"/>
<rect x="30.5" y="210.5" width="29" height="29" fill="white" stroke="black"/>
<rect x="60.5" y="210.5" width="29" height="29" fill="white" stroke="black"/>
<rect x="90.5" y="210.5" width="29" height="29" fill="white" stroke="black"/>
<rect x="120.5" y="210.5" width="29" height="29" fill="white" stroke="black"/>
<rect x="150.5" y="210.5" width="29" height="29" fill="white" stroke="black"/>
<rect x="180.5" y="210.5" width="29" height="29" fill="white" stroke="black"/>
<rect x="210.5" y="210.5" width="29" height="29" fill="white" stroke="black"/>
<rect x="240.5" y="210.5" width="29" height="29" fill="white" stroke="black"/>
<rect x="270.5" y="210.5" width="29" height="29" fill="white" stroke="black"/>
<rect x="300.5" y="210.5" width="29" height="29" fill="white" stroke="black"/>
<rect x="330.5" y="210.5" width="29" height="29" fill="white" stroke="black"/>
<rect x="360.5" y="210.5" width="29" height="29" fill="white" stroke="black"/>
<rect x="0.5" y="240.5" width="29" height="29" fill="white" stroke="black"/>
<rect x="30.5" y="240.5" width="29" height="29" fill="white" stroke="black"/>
<rect x="60.5" y="240.5" width="29" height="29" fill="white" stroke="black"/>
<rect x="90.5" y="240.5" width="29" height="29" fill="white" stroke="black"/>
<rect x="120.5" y="240.5" width="29" height="29" fill="white" stroke="black"/>
<rect x="150.5" y="240.5" width="29" height="29" fill="white" stroke="black"/>
<rect x="180.5" y="240.5" width="29" height="29" fill="white" stroke="black"/>
<rect x="210.5" y="240.5" width="29" height="29" fill="white" stroke="black"/>
<rect x="240.5" y="240.5" width="29" height="29" fill="white" stroke="black"/>
<rect x="270.5" y="240.5" width="29" height="29" fill="white" stroke="black"/>
<rect x="300.5" y="240.5" width="29" height="29" fill="white" stroke="black"/>
<rect x="330.5" y="240.5" width="29" height="29" fill="white" stroke="black"/>
<rect x="360.5" y="240.5" width="29" height="29" fill="white" stroke="black"/>
<rect x="0.5" y="270.5" width="29" height="29" fill="white" stroke="black"/>
<rect x="30.5" y="270.5" width="29" height="29" fill="white" stroke="black"/>
<rect x="60.5" y="270.5" width="29" height="29" fill="white" stroke="black"/>
<rect x="90.5" y="270.5" width="29" height="29" fill="white" stroke="black"/>
<rect x="120.5" y="270.5" width="29" height="29" fill="white" stroke="black"/>
<rect x="150.5" y="270.5" width="29" height="29" fill="white" stroke="black"/>
<rect x="180.5" y="270.5" width="29" height="29" fill="white" stroke="black"/>
<rect x="210.5" y="270.5" width="29" height="29" fill="white" stroke="black"/>
<rect x="240.5" y="270.5" width="29" height="29" fill="white" stroke="black"/>
<rect x="270.5" y="270.5" width="29" height="29" fill="white" stroke="black"/>
<rect x="300.5" y="270.5" width="29" height="29" fill="white" stroke="black"/>
<rect x="330.5" y="270.5" width="29" height="29" fill="white" stroke="black"/>
<rect x="360.5" y="270.5" width="29" height="29" fill="white" stroke="black"/>
<rect x="0.5" y="300.5" width="29" height="29" fill="white" stroke="black"/>
<rect x="30.5" y="300.5" width="29" height="29" fill="white" stroke="black"/>
<rect x="60.5" y="300.5" width="29" height="29" fill="white" stroke="black"/>
<rect x="90.5" y="300.5" width="29" height="29" fill="white" stroke="black"/>
<rect x="120.5" y="300.5" width="29" height="29" fill="white" stroke="black"/>
<rect x="150.5" y="300.5" width="29" height="29" fill="white" stroke="black"/>
<rect x="180.5" y="300.5" width="29" height="29" fill="white" stroke="black"/>
<rect x="210.5" y="300.5" width="29" height="29" fill="white" stroke="black"/>
<rect x="240.5" y="300.5" width="29" height="29" fill="white" stroke="black"/>
<rect x="270.5" y="300.5" width="29" height="29" fill="white" stroke="black"/>
<rect x="300.5" y="300.5" width="29" height="29" fill="white" stroke="black"/>
<rect x="330.5" y="300.5" width="29" height="29" fill="white" stroke="black"/>
<rect x="360.5" y="300.5" width="29" height="29" fill="white" stroke="black"/>
<rect x="0.5" y="330.5" width="29" height="29" fill="white" stroke="black"/>
<rect x="30.5" y="330.5" width="29" height="29" fill="white" stroke="black"/>
<rect x="60.5" y="330.5" width="29" height="29" fill="white" stroke="black"/>
<rect x="90.5" y="330.5" width="29" height="29" fill="white" stroke="black"/>
<rect x="120.5" y="330.5" width="29" height="29" fill="white" stroke="black"/>
<rect x="150.5" y="330.5" width="29" height="29" fill="white" stroke="black"/>
<rect x="180.5" y="330.5" width="29" height="29" fill="white" stroke="black"/>
<rect x="210.5" y="330.5" width="29" height="29" fill="white" stroke="black"/>
<rect x="240.5" y="330.5" width="29" height="29" fill="white" stroke="black"/>
<rect x="270.5" y="330.5" width="29" height="29" fill="white" stroke="black"/>
<rect x="300.5" y="330.5" width="29" height="29" fill="white" stroke="black"/>
<rect x="330.5" y="330.5" width="29" height="29" fill="white" stroke="black"/>
<rect x="360.5" y="330.5" width="29" height="29" fill="white" stroke="black"/>
</g>
<defs>
<clipPath id="clip0_504_414">
<rect width="390" height="360" fill="white"/>
</clipPath>
</defs>
</svg>
